<svg xmlns="http://www.w3.org/2000/svg" width="25.455" height="32" viewBox="0 0 25.455 32">
    <defs>
        <style>
            .cls-1{fill:#999}
        </style>
    </defs>
    <path id="empty" d="M18.709 25.7l-2.69 3.7a1.637 1.637 0 0 0 2.647 1.926l2.711-3.726A12.719 12.719 0 0 0 36.2 7.235L39.575 2.6A1.636 1.636 0 1 0 36.929.672l-3.35 4.6A12.719 12.719 0 0 0 18.709 25.7zM36.8 16.362a9.433 9.433 0 0 1-13.464 8.55L34.244 9.921a9.408 9.408 0 0 1 2.556 6.441zm-9.458-9.454a9.383 9.383 0 0 1 4.29 1.04L20.651 23.035a9.449 9.449 0 0 1 6.691-16.127z" class="cls-1" transform="translate(-14.615 .001)"/>
</svg>
