<svg xmlns="http://www.w3.org/2000/svg" width="18" height="8.953" viewBox="0 0 18 8.953">
    <defs>
        <style>
            .cls-1{fill:#fff}
        </style>
    </defs>
    <path id="eye" d="M17.793 13.4c-.16-.162-3.974-3.971-8.793-3.971S.368 13.237.208 13.4a.719.719 0 0 0 0 1.011c.16.163 3.974 3.971 8.793 3.971s8.632-3.808 8.793-3.97a.722.722 0 0 0-.001-1.012zM9 16.942c-3.225 0-6.047-2.059-7.207-3.038C2.95 12.926 5.766 10.868 9 10.868s6.047 2.059 7.207 3.038c-1.157.979-3.972 3.036-7.207 3.036zm0-5.8a2.759 2.759 0 1 1-2.759 2.759A2.758 2.758 0 0 1 9 11.147z" class="cls-1" transform="translate(0 -9.429)"/>
</svg>
