<svg xmlns="http://www.w3.org/2000/svg" id="copy" width="11.208" height="14" viewBox="0 0 11.208 14">
    <defs>
        <style>
            .cls-1{fill:#393939}
        </style>
    </defs>
    <path id="Path_25" d="M7.612 3.148H1.107A1.108 1.108 0 0 0 0 4.255v9.338A1.108 1.108 0 0 0 1.107 14.7h6.505a1.108 1.108 0 0 0 1.107-1.107V4.255a1.11 1.11 0 0 0-1.107-1.107zm.333 10.441a.332.332 0 0 1-.333.333H1.1a.333.333 0 0 1-.332-.333V4.257a.332.332 0 0 1 .332-.333h6.512a.332.332 0 0 1 .333.333z" class="cls-1" data-name="Path 25" transform="translate(0 -.7)"/>
    <path id="Path_26" d="M10.812 0H4.307A1.108 1.108 0 0 0 3.2 1.107a.389.389 0 1 0 .778 0 .332.332 0 0 1 .329-.329h6.506a.333.333 0 0 1 .333.333v9.334a.333.333 0 0 1-.333.332.389.389 0 0 0 0 .778 1.108 1.108 0 0 0 1.107-1.107V1.107A1.108 1.108 0 0 0 10.812 0z" class="cls-1" data-name="Path 26" transform="translate(-.711)"/>
</svg>
