<?xml version="1.0" standalone="no"?>
<!DOCTYPE svg PUBLIC "-//W3C//DTD SVG 20010904//EN"
 "http://www.w3.org/TR/2001/REC-SVG-20010904/DTD/svg10.dtd">
<svg version="1.0" xmlns="http://www.w3.org/2000/svg"
 width="300.000000pt" height="300.000000pt" viewBox="0 0 300.000000 300.000000"
 preserveAspectRatio="xMidYMid meet">
<metadata>
Created by potrace 1.11, written by Peter Selinger 2001-2013
</metadata>
<g transform="translate(0.000000,300.000000) scale(0.100000,-0.100000)"
fill="#000000" stroke="none">
<path d="M1443 2795 c-32 -18 -180 -104 -329 -190 -148 -87 -285 -167 -304
-177 -19 -11 -60 -35 -90 -53 -30 -18 -125 -74 -210 -123 l-155 -89 -1 -662 0
-661 38 -25 c20 -14 39 -25 42 -25 2 0 66 -37 142 -81 77 -45 159 -93 184
-107 25 -14 57 -33 72 -43 14 -11 29 -19 32 -19 3 0 46 -25 96 -55 50 -30 92
-55 94 -55 2 0 33 -17 67 -38 35 -22 134 -80 220 -129 l157 -91 152 89 c83 49
170 100 193 113 23 13 94 54 157 91 63 37 131 77 150 87 49 28 484 281 489
284 2 2 3 299 3 660 0 533 -3 659 -14 669 -7 7 -247 149 -533 315 -286 166
-536 312 -556 325 l-36 23 -60 -33z m171 -110 c60 -36 110 -65 112 -65 2 0
190 -108 224 -129 8 -6 102 -61 209 -123 107 -62 215 -125 240 -140 25 -15 55
-32 66 -37 11 -6 33 -18 48 -29 27 -19 25 -31 -8 -43 -6 -2 -95 -53 -198 -114
-259 -152 -279 -163 -284 -147 -3 6 -8 12 -12 12 -5 0 -120 65 -257 145 -137
80 -252 145 -256 145 -5 0 -128 -70 -274 -155 -146 -85 -268 -155 -270 -155
-3 0 -21 11 -42 23 -20 13 -57 35 -82 49 -25 14 -120 69 -213 123 l-167 97
122 72 c283 167 490 286 499 286 5 0 9 5 9 10 0 6 5 10 10 10 6 0 39 17 73 38
35 21 70 41 77 45 8 4 67 38 130 76 63 38 120 69 125 70 6 0 59 -28 119 -64z
m-1030 -694 c76 -44 142 -81 147 -81 5 0 9 -4 9 -10 0 -5 4 -10 9 -10 8 0 158
-85 171 -97 2 -2 5 -143 5 -313 0 -170 3 -311 5 -313 3 -2 120 -71 260 -152
140 -82 259 -152 264 -157 11 -8 15 -577 5 -584 -3 -2 -30 12 -60 30 -54 33
-356 209 -394 230 -11 6 -147 85 -303 175 -272 158 -282 165 -283 195 0 49 -1
1107 0 1145 1 22 5 32 14 28 6 -2 74 -41 151 -86z m1993 -515 l0 -604 -31 -16
c-17 -8 -52 -28 -78 -43 -309 -182 -805 -469 -815 -471 -7 -2 -13 -8 -13 -13
0 -5 -5 -9 -10 -9 -6 0 -29 -12 -51 -26 -23 -14 -43 -23 -46 -21 -5 6 -7 577
-1 582 3 3 252 148 348 203 25 14 77 44 115 67 l70 41 3 314 3 315 156 90 c86
50 177 102 202 117 25 15 61 35 79 44 18 9 35 20 38 25 3 5 11 9 18 9 10 0 13
-122 13 -604z"/>
<path d="M1464 2594 c-19 -29 -13 -51 18 -63 30 -12 60 14 56 48 -2 17 -11 27
-31 32 -23 6 -30 3 -43 -17z"/>
<path d="M1460 2371 c-18 -35 18 -79 54 -65 22 8 31 51 16 69 -18 21 -57 19
-70 -4z"/>
<path d="M742 1108 c-26 -26 -7 -78 27 -78 23 0 37 12 45 36 12 40 -43 71 -72
42z"/>
<path d="M562 1004 c-12 -8 -22 -24 -22 -34 0 -10 10 -26 22 -34 19 -13 25
-14 43 -2 11 7 20 24 20 36 0 12 -9 29 -20 36 -18 12 -24 11 -43 -2z"/>
<path d="M2191 1102 c-21 -40 12 -82 53 -66 22 8 31 50 16 69 -17 21 -57 19
-69 -3z"/>
<path d="M2384 1003 c-17 -18 -18 -45 -2 -61 38 -38 100 17 65 56 -20 22 -44
24 -63 5z"/>
</g>
</svg>
