<svg xmlns="http://www.w3.org/2000/svg" width="11.956" height="12" viewBox="0 0 11.956 12">
    <defs>
        <style>
            .cls-1{fill:#fff}
        </style>
    </defs>
    <g id="expand" transform="translate(-.994)">
        <path id="Path_62" d="M6.515 285.879l-.452-.452a.481.481 0 0 0-.676 0l-2.8 2.8v-2.38a.479.479 0 0 0-.478-.478h-.637a.479.479 0 0 0-.478.478v4.622a.463.463 0 0 0 .141.337.474.474 0 0 0 .337.141h4.621a.479.479 0 0 0 .478-.478v-.637a.479.479 0 0 0-.478-.478H3.714l2.8-2.8a.478.478 0 0 0 .001-.675z" class="cls-1" data-name="Path 62" transform="translate(0 -278.949)"/>
        <path id="Path_63" d="M289.738.141A.475.475 0 0 0 289.4 0h-4.62a.479.479 0 0 0-.478.478v.637a.479.479 0 0 0 .478.478h2.38l-2.8 2.8a.481.481 0 0 0 0 .676l.452.452a.481.481 0 0 0 .676 0l2.8-2.8V5.1a.479.479 0 0 0 .478.478h.637a.479.479 0 0 0 .478-.478V.479a.485.485 0 0 0-.143-.338z" class="cls-1" data-name="Path 63" transform="translate(-276.929)"/>
    </g>
</svg>
